<?xml version="1.0" encoding="UTF-8"?>
<svg xmlns="http://www.w3.org/2000/svg" xmlns:xlink="http://www.w3.org/1999/xlink" width="2835" height="2835" viewBox="0 0 2835 2835">
<path fill-rule="evenodd" fill="rgb(100%, 100%, 100%)" fill-opacity="1" d="M 0 0.351562 L 2834.648438 0.351562 L 2834.648438 2835 L 0 2835 L 0 0.351562 "/>
<path fill-rule="nonzero" fill="rgb(0%, 57.226562%, 100%)" fill-opacity="1" d="M 1673.601562 1153.019531 L 1639.589844 1153.019531 L 1639.589844 1119.320312 C 1639.589844 1063.5 1593.859375 1018.210938 1537.441406 1018.210938 L 1435.441406 1018.210938 L 1435.441406 1220.878906 C 1435.441406 1295.121094 1496.160156 1355.25 1570.988281 1355.25 L 1775.75 1355.25 L 1775.75 1254.140625 C 1775.75 1198.308594 1730.011719 1153.019531 1673.601562 1153.019531 Z M 1707.589844 1287.839844 L 1574.558594 1287.839844 C 1565.199219 1287.839844 1556.140625 1286.050781 1547.378906 1282.5 C 1538.621094 1278.929688 1531.058594 1273.738281 1524.371094 1267.199219 C 1517.691406 1260.519531 1512.5 1252.941406 1508.929688 1244.339844 C 1505.371094 1235.730469 1503.429688 1226.671875 1503.429688 1217.460938 L 1503.429688 1085.621094 L 1537.441406 1085.621094 C 1546.941406 1085.621094 1554.960938 1088.878906 1561.488281 1095.558594 C 1568.179688 1102.101562 1571.589844 1109.96875 1571.589844 1119.320312 L 1571.589844 1220.441406 L 1673.601562 1220.441406 C 1682.949219 1220.441406 1690.960938 1223.699219 1697.648438 1230.230469 C 1704.328125 1236.910156 1707.589844 1244.789062 1707.589844 1254.140625 L 1707.589844 1287.839844 "/>
<path fill-rule="nonzero" fill="rgb(100%, 0%, 55.271912%)" fill-opacity="1" d="M 1297.648438 1018.210938 C 1241.378906 1018.210938 1195.648438 1063.5 1195.648438 1119.320312 L 1195.648438 1153.019531 L 1161.648438 1153.019531 C 1105.21875 1153.019531 1059.488281 1198.308594 1059.488281 1254.140625 L 1059.488281 1355.25 L 1264.238281 1355.25 C 1339.070312 1355.25 1399.808594 1295.121094 1399.808594 1220.878906 L 1399.808594 1018.210938 Z M 1331.648438 1217.308594 C 1331.648438 1226.671875 1329.871094 1235.730469 1326.300781 1244.339844 C 1322.75 1252.941406 1317.539062 1260.519531 1310.859375 1267.199219 C 1304.179688 1273.738281 1296.46875 1278.929688 1287.851562 1282.5 C 1279.089844 1286.050781 1270.039062 1287.839844 1260.53125 1287.839844 L 1127.488281 1287.839844 L 1127.488281 1254.140625 C 1127.488281 1244.789062 1130.910156 1236.910156 1137.589844 1230.230469 C 1144.128906 1223.699219 1152.140625 1220.441406 1161.648438 1220.441406 L 1263.648438 1220.441406 L 1263.648438 1119.320312 C 1263.648438 1109.96875 1266.910156 1102.101562 1273.589844 1095.558594 C 1280.269531 1088.878906 1288.300781 1085.621094 1297.648438 1085.621094 L 1331.648438 1085.621094 L 1331.648438 1217.308594 "/>
<path fill-rule="nonzero" fill="rgb(100%, 0%, 55.271912%)" fill-opacity="1" d="M 1570.550781 1387.460938 C 1495.71875 1387.460938 1434.988281 1447.609375 1434.988281 1521.839844 L 1434.988281 1724.511719 L 1537.148438 1724.511719 C 1593.410156 1724.511719 1639.148438 1679.230469 1639.148438 1623.398438 L 1639.148438 1589.691406 L 1673.140625 1589.691406 C 1729.570312 1589.691406 1775.300781 1544.410156 1775.300781 1488.578125 L 1775.300781 1387.460938 Z M 1707.148438 1488.578125 C 1707.148438 1497.941406 1703.878906 1505.949219 1697.199219 1512.488281 C 1690.660156 1519.019531 1682.648438 1522.289062 1673.140625 1522.289062 L 1571.140625 1522.289062 L 1571.140625 1623.398438 C 1571.140625 1632.761719 1567.730469 1640.621094 1561.199219 1647.300781 C 1554.519531 1653.839844 1546.5 1657.109375 1537.148438 1657.109375 L 1503.140625 1657.109375 L 1503.140625 1525.398438 C 1503.140625 1516.050781 1504.921875 1507 1508.488281 1498.378906 C 1512.050781 1489.769531 1517.25 1482.191406 1523.929688 1475.511719 C 1530.609375 1468.980469 1538.328125 1463.929688 1546.941406 1460.21875 C 1555.699219 1456.660156 1564.761719 1454.878906 1574.269531 1454.878906 L 1707.148438 1454.878906 L 1707.148438 1488.578125 "/>
<path fill-rule="nonzero" fill="rgb(0%, 57.226562%, 100%)" fill-opacity="1" d="M 1263.800781 1387.460938 L 1059.050781 1387.460938 L 1059.050781 1488.578125 C 1059.050781 1544.410156 1104.78125 1589.691406 1161.199219 1589.691406 L 1195.199219 1589.691406 L 1195.199219 1623.398438 C 1195.199219 1679.230469 1240.929688 1724.511719 1297.199219 1724.511719 L 1399.351562 1724.511719 L 1399.351562 1521.839844 C 1399.351562 1447.609375 1338.628906 1387.460938 1263.800781 1387.460938 Z M 1331.351562 1657.109375 L 1297.199219 1657.109375 C 1287.851562 1657.109375 1279.828125 1653.839844 1273.148438 1647.300781 C 1266.621094 1640.621094 1263.210938 1632.761719 1263.210938 1623.398438 L 1263.210938 1522.289062 L 1161.199219 1522.289062 C 1151.839844 1522.289062 1143.820312 1519.019531 1137.140625 1512.488281 C 1130.460938 1505.800781 1127.199219 1497.941406 1127.199219 1488.578125 L 1127.199219 1454.878906 L 1260.078125 1454.878906 C 1269.578125 1454.878906 1278.648438 1456.660156 1287.410156 1460.21875 C 1296.171875 1463.929688 1303.738281 1468.980469 1310.421875 1475.511719 C 1317.101562 1482.191406 1322.289062 1489.769531 1325.859375 1498.378906 C 1329.429688 1507 1331.351562 1516.050781 1331.351562 1525.398438 L 1331.351562 1657.109375 "/>
<path fill-rule="nonzero" fill="rgb(0%, 57.226562%, 100%)" fill-opacity="1" d="M 2037.511719 1387.460938 C 2030.980469 1396.96875 2023.851562 1406.03125 2016.429688 1414.941406 L 2005.878906 1427.261719 L 1434.988281 1992.65625 L 1434.988281 2136.238281 L 2066.910156 1510.410156 L 2094.828125 1480.421875 C 2119.03125 1451.761719 2139.660156 1420.878906 2156.589844 1387.460938 L 2037.511719 1387.460938 "/>
<path fill-rule="nonzero" fill="rgb(0%, 57.226562%, 100%)" fill-opacity="1" d="M 767.878906 838.410156 C 734.328125 871.519531 706.410156 908.78125 684.140625 950.050781 C 661.71875 991.480469 645.835938 1035.140625 636.484375 1081.019531 C 627.273438 1127.039062 624.902344 1173.359375 629.503906 1220.140625 C 633.953125 1266.761719 645.242188 1311.890625 663.355469 1355.25 L 776.941406 1355.25 C 767.136719 1337.578125 758.828125 1319.320312 751.996094 1300.308594 C 745.167969 1281.308594 739.824219 1262.011719 736.105469 1242.261719 C 732.550781 1222.371094 730.472656 1202.46875 730.019531 1182.269531 C 729.574219 1162.230469 730.761719 1142.179688 733.585938 1122.140625 C 736.558594 1102.238281 740.855469 1082.640625 746.945312 1063.5 C 753.03125 1044.191406 760.605469 1025.628906 769.667969 1007.519531 C 778.71875 989.550781 789.265625 972.328125 801.140625 956 C 813.023438 939.660156 826.085938 924.359375 840.488281 910.121094 L 840.789062 909.820312 C 857.414062 893.328125 875.378906 878.640625 894.683594 865.570312 C 914.132812 852.511719 934.476562 841.21875 956.003906 831.871094 C 977.53125 822.660156 999.660156 815.390625 1022.519531 810.191406 C 1045.390625 804.839844 1068.398438 801.878906 1091.859375 800.828125 C 1115.308594 799.949219 1138.628906 801.140625 1161.800781 804.550781 C 1184.949219 807.820312 1207.671875 813.308594 1229.789062 820.890625 C 1252.058594 828.449219 1273.300781 837.949219 1293.640625 849.378906 C 1313.988281 860.96875 1333.128906 874.191406 1351.101562 889.191406 L 1399.808594 930.160156 L 1399.808594 797.570312 C 1211.53125 653.851562 940.410156 667.5 767.878906 838.410156 "/>
<path fill-rule="nonzero" fill="rgb(100%, 0%, 55.271912%)" fill-opacity="1" d="M 828.90625 1427.261719 L 818.367188 1414.941406 C 810.945312 1406.03125 803.8125 1396.96875 797.28125 1387.460938 L 678.203125 1387.460938 C 695.128906 1420.878906 715.761719 1451.910156 739.972656 1480.421875 L 767.878906 1510.550781 L 1399.808594 2136.238281 L 1399.808594 1992.65625 L 828.90625 1427.261719 "/>
<path fill-rule="nonzero" fill="rgb(100%, 0%, 55.271912%)" fill-opacity="1" d="M 2066.910156 838.410156 C 1894.378906 667.5 1623.261719 653.851562 1434.988281 797.570312 L 1434.988281 930.160156 L 1483.699219 889.191406 C 1501.660156 874.191406 1520.808594 860.820312 1541.160156 849.378906 C 1561.640625 837.949219 1582.878906 828.308594 1605 820.890625 C 1627.269531 813.308594 1649.988281 807.820312 1673.140625 804.398438 C 1696.460938 801.140625 1719.769531 799.949219 1743.230469 800.828125 C 1766.691406 801.878906 1789.699219 804.988281 1812.570312 810.191406 C 1835.429688 815.390625 1857.699219 822.660156 1879.089844 832.019531 C 1900.621094 841.371094 1921.109375 852.660156 1940.410156 865.71875 C 1959.851562 878.941406 1977.828125 893.640625 1994.300781 910.121094 L 1994.75 910.558594 C 2009.011719 924.820312 2022.070312 940.109375 2033.949219 956.441406 C 2045.820312 972.769531 2056.21875 989.851562 2065.269531 1007.960938 C 2074.328125 1025.921875 2081.910156 1044.488281 2087.839844 1063.789062 C 2093.929688 1082.941406 2098.378906 1102.539062 2101.199219 1122.441406 C 2104.03125 1142.328125 2105.210938 1162.371094 2104.769531 1182.421875 C 2104.328125 1202.621094 2102.25 1222.511719 2098.53125 1242.261719 C 2094.96875 1262.160156 2089.621094 1281.449219 2082.789062 1300.460938 C 2075.96875 1319.320312 2067.648438 1337.578125 2057.851562 1355.25 L 2171.429688 1355.25 C 2242.859375 1183.171875 2207.960938 978.121094 2066.910156 838.410156 "/>
</svg>
